<mxfile host="app.diagrams.net" modified="2023-08-26T11:40:09.221Z" agent="Mozilla/5.0 (Macintosh; Intel Mac OS X 10_15_7) AppleWebKit/537.36 (KHTML, like Gecko) Chrome/116.0.0.0 Safari/537.36" etag="XaiKEas12JV9AkgVNq-C" version="21.6.9" type="github">
  <diagram name="Page-1" id="m-ObcneZwPDGZaIFpHRs">
    <mxGraphModel dx="1434" dy="822" grid="1" gridSize="10" guides="1" tooltips="1" connect="1" arrows="1" fold="1" page="1" pageScale="1" pageWidth="850" pageHeight="1100" math="0" shadow="0">
      <root>
        <mxCell id="0" />
        <mxCell id="1" parent="0" />
        <mxCell id="Vv9EQHFCKhlQalYGTsl3-1" value="&lt;blockquote style=&quot;margin: 0 0 0 40px; border: none; padding: 0px;&quot;&gt;&lt;blockquote style=&quot;margin: 0 0 0 40px; border: none; padding: 0px;&quot;&gt;&lt;blockquote style=&quot;margin: 0 0 0 40px; border: none; padding: 0px;&quot;&gt;&lt;blockquote style=&quot;margin: 0 0 0 40px; border: none; padding: 0px;&quot;&gt;&lt;blockquote style=&quot;margin: 0 0 0 40px; border: none; padding: 0px;&quot;&gt;&lt;p style=&quot;&quot;&gt;&lt;b style=&quot;background-color: initial;&quot;&gt;&lt;font style=&quot;font-size: 13px;&quot;&gt;&amp;nbsp;AWS VPC&lt;/font&gt;&lt;/b&gt;&lt;/p&gt;&lt;p style=&quot;&quot;&gt;&lt;b style=&quot;background-color: initial;&quot;&gt;&lt;font style=&quot;font-size: 13px;&quot;&gt;my_vpc&lt;/font&gt;&lt;/b&gt;&lt;/p&gt;&lt;/blockquote&gt;&lt;/blockquote&gt;&lt;/blockquote&gt;&lt;/blockquote&gt;&lt;/blockquote&gt;" style="rounded=0;whiteSpace=wrap;html=1;align=center;fillColor=#dae8fc;strokeColor=#6c8ebf;" vertex="1" parent="1">
          <mxGeometry x="70" y="90" width="280" height="110" as="geometry" />
        </mxCell>
        <mxCell id="Vv9EQHFCKhlQalYGTsl3-3" value="&lt;br&gt;&lt;b&gt;Subnet_1&lt;/b&gt;&lt;br&gt;10.1.1.0/24" style="ellipse;whiteSpace=wrap;html=1;fillColor=#f8cecc;strokeColor=#b85450;" vertex="1" parent="1">
          <mxGeometry x="145" y="105" width="120" height="80" as="geometry" />
        </mxCell>
        <mxCell id="Vv9EQHFCKhlQalYGTsl3-15" value="" style="edgeStyle=orthogonalEdgeStyle;rounded=0;orthogonalLoop=1;jettySize=auto;html=1;" edge="1" parent="1" source="Vv9EQHFCKhlQalYGTsl3-8" target="Vv9EQHFCKhlQalYGTsl3-13">
          <mxGeometry relative="1" as="geometry">
            <Array as="points">
              <mxPoint x="560" y="223" />
              <mxPoint x="563" y="223" />
            </Array>
          </mxGeometry>
        </mxCell>
        <mxCell id="Vv9EQHFCKhlQalYGTsl3-19" style="edgeStyle=orthogonalEdgeStyle;rounded=0;orthogonalLoop=1;jettySize=auto;html=1;exitX=1;exitY=0.5;exitDx=0;exitDy=0;entryX=0;entryY=0.5;entryDx=0;entryDy=0;" edge="1" parent="1" source="Vv9EQHFCKhlQalYGTsl3-8" target="Vv9EQHFCKhlQalYGTsl3-18">
          <mxGeometry relative="1" as="geometry" />
        </mxCell>
        <mxCell id="Vv9EQHFCKhlQalYGTsl3-8" value="AWS EKS Cluster&lt;br&gt;my_cluster" style="shape=hexagon;perimeter=hexagonPerimeter2;whiteSpace=wrap;html=1;fixedSize=1;fillColor=#dae8fc;strokeColor=#6c8ebf;rounded=0;" vertex="1" parent="1">
          <mxGeometry x="500" y="105" width="120" height="80" as="geometry" />
        </mxCell>
        <mxCell id="Vv9EQHFCKhlQalYGTsl3-11" value="" style="edgeStyle=orthogonalEdgeStyle;rounded=0;orthogonalLoop=1;jettySize=auto;html=1;" edge="1" parent="1" source="Vv9EQHFCKhlQalYGTsl3-10" target="Vv9EQHFCKhlQalYGTsl3-8">
          <mxGeometry relative="1" as="geometry" />
        </mxCell>
        <mxCell id="Vv9EQHFCKhlQalYGTsl3-10" value="" style="line;strokeWidth=1;rotatable=0;dashed=0;labelPosition=right;align=left;verticalAlign=middle;spacingTop=0;spacingLeft=6;points=[];portConstraint=eastwest;" vertex="1" parent="1">
          <mxGeometry x="350" y="140" width="110" height="10" as="geometry" />
        </mxCell>
        <mxCell id="Vv9EQHFCKhlQalYGTsl3-12" value="private Network" style="text;html=1;align=center;verticalAlign=middle;resizable=0;points=[];autosize=1;strokeColor=none;fillColor=none;" vertex="1" parent="1">
          <mxGeometry x="370" y="120" width="110" height="30" as="geometry" />
        </mxCell>
        <mxCell id="Vv9EQHFCKhlQalYGTsl3-13" value="aws rds mysql&lt;br&gt;mydb(10.0.0.0/16)&amp;nbsp;" style="shape=cylinder3;whiteSpace=wrap;html=1;boundedLbl=1;backgroundOutline=1;size=15;fillColor=#dae8fc;strokeColor=#6c8ebf;" vertex="1" parent="1">
          <mxGeometry x="505" y="260" width="115" height="110" as="geometry" />
        </mxCell>
        <mxCell id="Vv9EQHFCKhlQalYGTsl3-16" value="&lt;blockquote style=&quot;margin: 0 0 0 40px; border: none; padding: 0px;&quot;&gt;Private Network&lt;/blockquote&gt;" style="text;html=1;align=center;verticalAlign=middle;resizable=0;points=[];autosize=1;strokeColor=none;fillColor=none;" vertex="1" parent="1">
          <mxGeometry x="520" y="200" width="150" height="30" as="geometry" />
        </mxCell>
        <mxCell id="Vv9EQHFCKhlQalYGTsl3-18" value="AWS ECR Docker registry&lt;br&gt;private_registry" style="rhombus;whiteSpace=wrap;html=1;fillColor=#dae8fc;strokeColor=#6c8ebf;" vertex="1" parent="1">
          <mxGeometry x="720" y="97" width="200" height="96" as="geometry" />
        </mxCell>
        <mxCell id="Vv9EQHFCKhlQalYGTsl3-20" value="Private Network" style="text;html=1;align=center;verticalAlign=middle;resizable=0;points=[];autosize=1;strokeColor=none;fillColor=none;" vertex="1" parent="1">
          <mxGeometry x="610" y="120" width="110" height="30" as="geometry" />
        </mxCell>
      </root>
    </mxGraphModel>
  </diagram>
</mxfile>
